<svg width="91" height="91" viewBox="0 0 91 91" fill="none" xmlns="http://www.w3.org/2000/svg">
<path d="M3.5097 74.3567L3.51059 74.3539L9.35689 56.0864C9.35712 56.0857 9.35735 56.085 9.35758 56.0843C10.8987 51.305 16.1429 48.8084 20.8184 50.6234L20.819 50.6236C24.8316 52.1799 29.9578 53.3861 36.1872 53.3861C42.4138 53.3861 47.5579 52.181 51.5557 50.6235C56.2578 48.8049 61.4932 51.2959 63.0153 56.0797L63.0163 56.0828L68.8638 74.3539L68.8673 74.365L68.871 74.3761C69.9734 77.6832 67.5049 81.0872 64.0026 81.0872H8.42507C4.92649 81.0872 2.44081 77.6792 3.5097 74.3567Z" stroke="url(#paint0_linear_137_185)" stroke-width="3.9"/>
<path d="M52.5973 26.2868C52.5973 35.3302 45.2662 42.6612 36.2229 42.6612C27.1795 42.6612 19.8484 35.3302 19.8484 26.2868C19.8484 17.2435 27.1795 9.9124 36.2229 9.9124C45.2662 9.9124 52.5973 17.2435 52.5973 26.2868Z" stroke="url(#paint1_linear_137_185)" stroke-width="3.9"/>
<path d="M77.0357 29.5397V31.4897H78.9857H84.8154C86.4341 31.4897 87.7281 32.794 87.7176 34.379L87.7176 34.379V34.3919C87.7176 35.9987 86.4223 37.294 84.8154 37.294H78.9857H77.0357V39.244V45.0737C77.0357 46.6806 75.7404 47.9759 74.1336 47.9759C72.5268 47.9759 71.2314 46.6806 71.2314 45.0737V39.244V37.294H69.2814H63.4518C61.8449 37.294 60.5496 35.9987 60.5496 34.3919C60.5496 32.7851 61.8449 31.4897 63.4518 31.4897H69.2814H71.2314V29.5397V23.7101C71.2314 22.1032 72.5268 20.8079 74.1336 20.8079C75.7404 20.8079 77.0357 22.1032 77.0357 23.7101V29.5397Z" stroke="url(#paint2_linear_137_185)" stroke-width="3.9"/>
<defs>
<linearGradient id="paint0_linear_137_185" x1="36.1981" y1="48.0771" x2="36.1981" y2="83.0372" gradientUnits="userSpaceOnUse">
<stop stop-color="#FFD800"/>
<stop offset="1" stop-color="#CEAE00"/>
</linearGradient>
<linearGradient id="paint1_linear_137_185" x1="36.2229" y1="7.9624" x2="36.2229" y2="44.6112" gradientUnits="userSpaceOnUse">
<stop stop-color="#FFD800"/>
<stop offset="1" stop-color="#CEAE00"/>
</linearGradient>
<linearGradient id="paint2_linear_137_185" x1="74.1336" y1="18.8579" x2="74.1336" y2="49.9259" gradientUnits="userSpaceOnUse">
<stop stop-color="#FFD800"/>
<stop offset="1" stop-color="#CEAE00"/>
</linearGradient>
</defs>
</svg>
