<svg width="1440" height="1024" viewBox="0 0 1440 1024" fill="none" xmlns="http://www.w3.org/2000/svg">
<g clip-path="url(#clip0_317_5)">
<rect width="1440" height="1024" fill="white"/>
<path d="M1436.6 1024H358C358 1024 731.774 903.126 795.995 665.928C849.724 467.48 442.023 224.342 975.96 -0.20256C1509.9 -224.747 1436.6 -0.202728 1436.6 -0.202728V1024Z" fill="#FFD800" fill-opacity="0.29"/>
<path d="M1436.71 1024H394C394 1024 755.338 903.126 817.422 665.928C869.363 467.48 475.228 224.342 991.399 -0.20256C1507.57 -224.747 1436.71 -0.202728 1436.71 -0.202728V1024Z" fill="#FFD800" fill-opacity="0.57"/>
<path d="M1439.81 1024H428C428 1024 778.629 903.126 838.873 665.928C889.275 467.48 506.821 224.342 1007.69 -0.20256C1508.57 -224.747 1439.81 -0.202728 1439.81 -0.202728V1024Z" fill="#FFD800" fill-opacity="0.73"/>
</g>
<defs>
<clipPath id="clip0_317_5">
<rect width="1440" height="1024" fill="white"/>
</clipPath>
</defs>
</svg>
