<svg width="1440" height="1024" viewBox="0 0 1440 1024" fill="none" xmlns="http://www.w3.org/2000/svg">
<g clip-path="url(#clip0_317_441)">
<rect width="1440" height="1024" fill="white"/>
<g opacity="0.87">
<path d="M1449.86 1531.55L370 1071.94C370 1071.94 788.258 1089.69 938.988 839.359C1065.09 629.918 745.515 171.531 1361.9 136.165C1978.28 100.8 1823.08 332.454 1823.08 332.454L1449.86 1531.55Z" fill="#FFD800" fill-opacity="0.29"/>
<path d="M1451.13 1523.93L407.198 1079.61C407.198 1079.61 813.006 1092.07 961.596 840.82C1085.91 630.617 779.914 178.011 1378.51 135.075C1977.11 92.1393 1824.35 324.832 1824.35 324.832L1451.13 1523.93Z" fill="#FFD800" fill-opacity="0.57"/>
<path d="M1455.42 1517.37L442.428 1086.21C442.428 1086.21 837.514 1094.11 984.262 842.077C1107.04 631.219 812.734 183.59 1396.02 134.135C1979.3 84.6812 1828.64 318.269 1828.64 318.269L1455.42 1517.37Z" fill="#FFD800" fill-opacity="0.73"/>
</g>
</g>
<defs>
<clipPath id="clip0_317_441">
<rect width="1440" height="1024" fill="white"/>
</clipPath>
</defs>
</svg>
