<svg width="94" height="94" viewBox="0 0 94 94" fill="none" xmlns="http://www.w3.org/2000/svg">
<path d="M10.8598 15.3963C10.4474 15.6712 10.035 16.0836 9.7601 16.3585C7.14824 32.0297 8.38544 48.938 8.79783 64.0593C8.79783 66.1213 9.48516 68.1833 10.4474 69.9704C11.8221 72.7197 14.2965 74.3693 17.5957 73.6819C18.1455 73.9569 17.3207 73.8194 33.4043 73.8194C33.4043 74.7817 33.5418 75.6065 33.6792 76.5687C34.504 81.655 39.1779 87.841 44.9515 89.903C50.725 91.965 57.3234 91.5525 62.4097 88.2534C66.5337 85.6415 69.9703 80.8302 70.6576 75.8814C70.7951 75.1941 70.9326 74.5067 71.07 73.8194H84.4043C84.9541 73.8194 85.504 73.407 85.504 72.7197V24.744C85.504 24.1941 85.0916 23.6442 84.4043 23.6442H75.469C75.194 16.7709 74.5067 9.8976 73.407 3.02429C73.2695 2.47443 72.8571 2.06203 72.1698 2.19949L69.9703 2.74936C58.4232 4.94882 55.6738 5.36122 46.1887 4.12402C39.0404 3.16176 31.7547 2.19949 24.7439 3.98656C24.469 4.12402 24.1941 4.26149 24.0566 4.53642C23.5067 4.81135 23.0943 5.36122 22.8194 5.77362C22.9569 8.52294 22.9569 11.4097 23.0943 14.2965H11.9596C11.4097 14.2965 10.9973 14.5715 10.8598 15.3963ZM52.9245 87.7035C46.4636 87.7035 40.5525 83.717 37.9407 77.8059C33.2668 66.8086 40.2776 55.2615 52.9245 55.2615C61.8598 55.2615 69.1455 62.5472 69.1455 71.4825C69.1455 80.4178 61.8598 87.7035 52.9245 87.7035ZM71.2075 71.8949C71.4824 61.4474 63.097 53.1995 52.9245 53.1995C42.6145 53.1995 33.9542 60.6226 33.4043 71.8949H20.2075C21.0323 70.3827 21.0323 68.5957 21.1698 67.496L21.5822 39.5903C21.7197 34.2291 23.0943 33.2669 27.4932 33.4043C61.8598 34.0917 63.097 34.0917 83.3045 34.3666V71.8949H71.2075ZM83.3045 25.8437V32.3046L75.6064 32.1671C75.6064 30.1051 75.6064 27.9057 75.469 25.8437H83.3045ZM45.9137 6.18602C56.0862 7.56068 59.1105 7.01081 70.3827 4.81135L71.4824 4.53642C72.8571 13.7467 73.5444 22.8194 73.5444 32.1671C57.186 31.8922 42.0647 31.6173 27.7682 31.3423L25.9811 5.63615C32.442 4.39895 39.3153 5.22375 45.9137 6.18602ZM12.9218 16.3585H23.0943C23.3693 21.4448 23.6442 26.531 24.1941 31.6173C20.2075 32.4421 19.3827 35.6038 19.2453 39.7278L18.8329 67.6334C18.6954 73.407 15.3962 72.4447 14.159 70.5202C13.1968 69.1456 13.0593 67.3585 12.9218 65.434C11.6846 49.3504 11.6846 32.8545 12.9218 16.3585Z" fill="url(#paint0_linear_137_227)"/>
<path d="M36.4288 16.7707H66.259C66.8089 16.7707 67.3587 16.3583 67.3587 15.671C67.3587 14.9837 66.9463 14.5713 66.259 14.5713H36.4288C35.879 14.5713 35.3291 14.9837 35.3291 15.671C35.3291 16.3583 35.879 16.7707 36.4288 16.7707Z" fill="url(#paint1_linear_137_227)"/>
<path d="M50.8628 22.5444H40.5529C40.003 22.5444 39.4531 22.9568 39.4531 23.6442C39.4531 24.3315 39.8655 24.7439 40.5529 24.7439H50.8628C51.4127 24.7439 51.9626 24.3315 51.9626 23.6442C51.9626 22.9568 51.4127 22.5444 50.8628 22.5444Z" fill="url(#paint2_linear_137_227)"/>
<path d="M58.6977 74.7815L54.8487 74.9189L55.3985 64.4715C55.3985 64.334 55.2611 64.0591 55.1236 64.0591H48.5252C48.3878 64.0591 48.1128 64.1966 48.2503 64.4715L49.2126 75.0564L45.6384 75.1939C45.3635 75.1939 45.226 75.6062 45.3635 75.7437L52.2368 82.7545C52.3743 82.892 52.6492 82.892 52.7867 82.7545L58.9727 75.3313C59.2476 75.0564 58.9727 74.7815 58.6977 74.7815Z" fill="url(#paint3_linear_137_227)"/>
<defs>
<linearGradient id="paint0_linear_137_227" x1="46.8233" y1="2.17285" x2="46.8233" y2="91.1633" gradientUnits="userSpaceOnUse">
<stop stop-color="#FFD800"/>
<stop offset="1" stop-color="#CDAE00"/>
</linearGradient>
<linearGradient id="paint1_linear_137_227" x1="51.3439" y1="14.5713" x2="51.3439" y2="16.7707" gradientUnits="userSpaceOnUse">
<stop stop-color="#FFD800"/>
<stop offset="1" stop-color="#CDAE00"/>
</linearGradient>
<linearGradient id="paint2_linear_137_227" x1="45.7078" y1="22.5444" x2="45.7078" y2="24.7439" gradientUnits="userSpaceOnUse">
<stop stop-color="#FFD800"/>
<stop offset="1" stop-color="#CDAE00"/>
</linearGradient>
<linearGradient id="paint3_linear_137_227" x1="52.1981" y1="64.0591" x2="52.1981" y2="82.8576" gradientUnits="userSpaceOnUse">
<stop stop-color="#FFD800"/>
<stop offset="1" stop-color="#CDAE00"/>
</linearGradient>
</defs>
</svg>
