<svg width="91" height="91" viewBox="0 0 91 91" fill="none" xmlns="http://www.w3.org/2000/svg">
<path d="M79.9759 19.3146L75.453 17.6443V15.6479C75.453 11.9724 72.4624 8.98115 68.7862 8.98115H52.0717L36.3515 3.17443C34.6788 2.55595 32.8689 2.6293 31.2519 3.37301C29.6342 4.11798 28.4035 5.44855 27.7869 7.12063L27.1005 8.98115H22.2414C18.5652 8.98115 15.5746 11.9724 15.5746 15.6479V40.1659L7.08334 63.1363C6.46548 64.8071 6.53568 66.6183 7.28065 68.236C8.02562 69.8537 9.35556 71.0856 11.027 71.7028L15.5746 73.3822V75.353C15.5746 79.0286 18.5652 82.0198 22.2414 82.0198H38.9552L54.6754 87.8265C55.4286 88.1048 56.2102 88.2427 56.9894 88.2427C57.9392 88.2427 58.8866 88.0365 59.7751 87.628C61.3928 86.883 62.6234 85.5524 63.24 83.8816L63.9274 82.0198H68.7862C72.4624 82.0198 75.453 79.0286 75.453 75.353V50.7744L83.9171 27.8761C84.5343 26.2065 84.4641 24.3966 83.7197 22.7789C82.9754 21.1625 81.6461 19.9331 79.9759 19.3146ZM30.2166 8.01737C30.5942 6.99541 31.3467 6.18214 32.3358 5.72555C33.3242 5.27148 34.4322 5.22595 35.4535 5.60539L44.5943 8.98115H29.8612L30.2166 8.01737ZM11.9244 69.2719C10.9024 68.895 10.0891 68.1424 9.63382 67.1533C9.17849 66.1642 9.13549 65.0563 9.51303 64.0343L15.5746 47.6361V70.6201L11.9244 69.2719ZM60.8103 82.9836C60.4328 84.0056 59.6802 84.8188 58.6912 85.2754C57.7027 85.7282 56.596 85.775 55.5734 85.3956L46.4327 82.0198H61.1664L60.8103 82.9836ZM68.7862 79.4295H63.025H39.1885H22.2414C19.9938 79.4295 18.1649 77.6006 18.1649 75.353V72.4794V40.3976V15.6479C18.1649 13.4004 19.9938 11.5715 22.2414 11.5715H28.0026H51.8385H68.7862C71.0338 11.5715 72.8627 13.4004 72.8627 15.6479V18.3628C72.8545 18.4215 72.8412 18.4791 72.8412 18.5393V50.6008C72.8412 50.643 72.8587 50.6802 72.8627 50.7214V75.353C72.8627 77.6006 71.0338 79.4295 68.7862 79.4295ZM81.4874 26.9781L75.453 43.3029V20.4065L79.0779 21.7443C80.0992 22.1225 80.9119 22.875 81.3672 23.8628C81.8219 24.8507 81.8649 25.9574 81.4874 26.9781Z" fill="url(#paint0_linear_137_236)"/>
<path d="M64.4773 65.7695H53.8119H26.5477C24.0668 65.7695 22.0488 67.7882 22.0488 70.2684C22.0488 72.7487 24.0668 74.7674 26.5477 74.7674H53.8119H64.4773C66.9576 74.7674 68.9756 72.7487 68.9756 70.2684C68.9756 67.7882 66.9576 65.7695 64.4773 65.7695ZM24.6391 70.2684C24.6391 69.2161 25.4954 68.3599 26.5477 68.3599H52.5167V72.177H26.5477C25.4954 72.177 24.6391 71.3208 24.6391 70.2684ZM64.4773 72.177H55.107V68.3599H64.4773C65.5296 68.3599 66.3853 69.2161 66.3853 70.2684C66.3853 71.3208 65.5296 72.177 64.4773 72.177Z" fill="url(#paint1_linear_137_236)"/>
<path d="M23.344 19.1699H39.9193C40.6345 19.1699 41.2144 18.5906 41.2144 17.8747C41.2144 17.1589 40.6345 16.5796 39.9193 16.5796H23.344C22.6287 16.5796 22.0488 17.1589 22.0488 17.8747C22.0488 18.5906 22.6287 19.1699 23.344 19.1699Z" fill="url(#paint2_linear_137_236)"/>
<path d="M23.344 26.2417H31.2376C31.9529 26.2417 32.5328 25.6624 32.5328 24.9465C32.5328 24.2306 31.9529 23.6514 31.2376 23.6514H23.344C22.6287 23.6514 22.0488 24.2306 22.0488 24.9465C22.0488 25.6624 22.6287 26.2417 23.344 26.2417Z" fill="url(#paint3_linear_137_236)"/>
<defs>
<linearGradient id="paint0_linear_137_236" x1="45.5" y1="2.75781" x2="45.5" y2="88.2427" gradientUnits="userSpaceOnUse">
<stop stop-color="#FFD800"/>
<stop offset="1" stop-color="#C8A900"/>
</linearGradient>
<linearGradient id="paint1_linear_137_236" x1="45.5122" y1="65.7695" x2="45.5122" y2="74.7674" gradientUnits="userSpaceOnUse">
<stop stop-color="#FFD800"/>
<stop offset="1" stop-color="#C8A900"/>
</linearGradient>
<linearGradient id="paint2_linear_137_236" x1="31.6316" y1="16.5796" x2="31.6316" y2="19.1699" gradientUnits="userSpaceOnUse">
<stop stop-color="#FFD800"/>
<stop offset="1" stop-color="#C8A900"/>
</linearGradient>
<linearGradient id="paint3_linear_137_236" x1="27.2908" y1="23.6514" x2="27.2908" y2="26.2417" gradientUnits="userSpaceOnUse">
<stop stop-color="#FFD800"/>
<stop offset="1" stop-color="#C8A900"/>
</linearGradient>
</defs>
</svg>
